<svg width="29" height="17" viewBox="0 0 29 17" fill="none" xmlns="http://www.w3.org/2000/svg">
<path d="M-2.38419e-07 16.4639V-0.000133991H2.592L10.104 10.3199C10.2 10.4159 10.304 10.5519 10.416 10.7279C10.544 10.9039 10.664 11.0799 10.776 11.2559C10.888 11.4319 10.968 11.5759 11.016 11.6879H11.136C11.136 11.4479 11.136 11.2159 11.136 10.9919C11.136 10.7679 11.136 10.5439 11.136 10.3199V-0.000133991H13.728V16.4639H11.232L3.624 6.02387C3.496 5.83187 3.336 5.59187 3.144 5.30387C2.952 4.99987 2.808 4.76787 2.712 4.60787H2.592C2.592 4.83187 2.592 5.06387 2.592 5.30387C2.592 5.52787 2.592 5.76787 2.592 6.02387V16.4639H-2.38419e-07ZM19.185 16.4639C19.185 15.0399 19.361 13.6639 19.713 12.3359C20.065 10.9919 20.537 9.71987 21.129 8.51987C21.737 7.30387 22.393 6.17587 23.097 5.13587C23.817 4.07987 24.529 3.13587 25.233 2.30387H16.689V-0.000133991H28.353V1.60787C27.793 2.27987 27.209 3.02387 26.601 3.83987C25.993 4.63987 25.409 5.49587 24.849 6.40787C24.289 7.31987 23.785 8.26387 23.337 9.23987C22.905 10.2159 22.561 11.2159 22.305 12.2399C22.049 13.2479 21.921 14.2639 21.921 15.2879V16.4639H19.185Z" fill="#E9F4F9"/>
</svg>
